<svg class="icon" viewBox="0 0 1024 1024" xmlns="http://www.w3.org/2000/svg" width="200" height="200"><defs><style/></defs><path d="M507.996 377.698c-74.201 0-134.56 62.37-134.56 139.017 0 76.651 60.359 139.022 134.56 139.022 74.196 0 134.554-62.37 134.554-139.022 0-76.646-60.358-139.017-134.554-139.017zm3.959 455.43c-195.836 0-369.826-121.606-443.253-309.798l-4.397-11.357 4.397-11.33C142.168 312.451 316.158 190.87 511.955 190.87c195.849 0 369.865 121.607 443.331 309.799l4.41 11.33-4.41 11.33c-73.427 188.193-247.444 309.8-443.331 309.8zM92.706 511.975l.686 1.76C162.81 691.655 327.112 806.64 511.954 806.64c184.894 0 349.223-114.985 418.653-292.933l.66-1.707-.66-1.707C861.15 332.346 696.809 217.361 511.954 217.361c-184.803 0-349.106 114.985-418.575 292.908l-.673 1.705z"/></svg>