<svg class="icon" viewBox="0 0 1024 1024" xmlns="http://www.w3.org/2000/svg" width="200" height="200"><defs><style/></defs><path d="M889.105 387.689l70.42-75.852-19.679-18.26-70.236 75.641c-176.956 182.689-355 177.1-357.177 177.31C282.438 545.4 86.775 312.65 84.82 310.288l-20.688 17.159c4.218 5.081 57.689 68.527 140.99 129.708l-77.418 94.33 20.78 17.055 78.626-95.802c45.57 31.146 98.579 60.232 156.648 79.054l-34.64 117.183 25.765 7.608 34.744-117.55c32.856 8.636 66.928 14.162 102.121 14.334.604.052 2.296.105 4.973.105 13.709 0 53.5-1.684 108.149-18.089l30.854 175.039 26.448-4.67-31.53-178.851c48.558-17.455 106.129-46.604 166.388-94.159l55.99 100.528 23.482-13.066-58.413-104.88c16.907-14.457 33.929-29.995 51.015-47.636z"/></svg>