<svg class="icon" viewBox="0 0 1024 1024" xmlns="http://www.w3.org/2000/svg" width="200" height="200"><defs><style/></defs><path d="M528.354 954.793c-184.167 0-334.009-149.843-334.009-334.01V453.819h668.058v166.966c0 184.166-149.855 334.009-334.049 334.009zm-307.36-474.327v140.318c0 169.49 137.884 307.36 307.36 307.36 169.503 0 307.4-137.87 307.4-307.36V480.466h-614.76zm307.36 335.075c-45.514 0-82.91-37.031-83.352-82.546v-56.549c0-45.956 37.41-83.352 83.38-83.352 45.982 0 83.404 37.396 83.404 83.352v56.42c-.482 45.644-37.904 82.675-83.432 82.675zm.026-195.8c-31.28 0-56.731 25.426-56.731 56.705v56.42c.299 30.837 25.737 56.027 56.704 56.027 30.981 0 56.458-25.19 56.784-56.158v-56.288c0-31.28-25.463-56.705-56.757-56.705zM755.72 407.055h-26.648V277.82c0-103.234-90.04-187.211-200.718-187.211-110.65 0-200.666 83.977-200.666 187.211v129.233H301.04V277.82c0-117.911 101.973-213.86 227.313-213.86 125.368 0 227.366 95.949 227.366 213.86v129.233z"/></svg>