<svg class="icon" viewBox="0 0 1024 1024" xmlns="http://www.w3.org/2000/svg" width="200" height="200"><defs><style/></defs><path d="M513.016 503.646c-115.797 0-210.007-98.633-210.007-219.856S397.22 63.962 513.016 63.962c115.81 0 210.02 98.606 210.02 219.828s-94.21 219.856-210.02 219.856zm0-412.972c-101.07 0-183.294 86.632-183.294 193.116 0 106.51 82.223 193.143 183.294 193.143s183.308-86.632 183.308-193.143c0-106.483-82.236-193.116-183.308-193.116zm0 852.134H286.875c-131.958 0-219.842-13.643-219.842-80.215 0-140.918 190.73-298.505 445.983-298.505 255.267 0 445.997 156.544 445.997 296.523 0 65.764-87.806 80.423-219.659 82.198H513.016zm0-352.008c-236.12 0-419.27 146.108-419.27 271.792 0 24.912 21.951 53.502 193.129 53.502H739.17c170.16-2.295 193.13-29.32 193.13-55.485 0-124.77-183.152-269.81-419.285-269.81zm216.325 393.578"/></svg>